<svg width="150px" fill="#fff" height="150px"  viewBox="0 0 25 25" enable-background="new 0 0 100 100" xmlns="http://www.w3.org/2000/svg" xml:space="preserve" version="1.1">

 <g>
  <title>Layer 1</title>
  <path id="svg_1" d="m11.999,23.997c-6.627,0 -11.999,-5.372 -11.999,-11.998c0,-6.627 5.372,-11.999 11.999,-11.999c0.755,0 1.491,0.078 2.207,0.212c-0.132,0.576 -0.208,1.173 -0.208,1.788c0,4.418 3.582,7.999 8,7.999c0.615,0 1.212,-0.076 1.788,-0.208c0.133,0.717 0.211,1.452 0.211,2.208c0,6.626 -5.372,11.998 -11.998,11.998zm-1.788,-19.79c-3.556,0.813 -6.211,3.989 -6.211,7.792c0,4.417 3.581,7.999 7.999,7.999c3.802,0 6.978,-2.655 7.791,-6.211c-4.854,-0.904 -8.676,-4.726 -9.579,-9.58z" clip-rule="evenodd" fill-rule="evenodd"/>
 </g>
</svg>