<svg width="150px" fill="#fff" height="150px"  viewBox="0 0 60 50" enable-background="new 0 0 100 100" xml:space="preserve" xmlns="http://www.w3.org/2000/svg">
 <g>
  <title>Layer 1</title>
  <g id="svg_1">
   <path id="svg_2" fill-rule="evenodd" clip-rule="evenodd" d="m51.993,25.996l-4,0c-1.104,0 -2,-0.895 -2,-2c0,-1.104 0.896,-1.998 2,-1.998l4,0c1.104,0 2,0.895 2,1.998c0,1.105 -0.896,2 -2,2zm-7.857,-13.312c-0.781,0.781 -2.047,0.781 -2.828,0c-0.781,-0.78 -0.781,-2.047 0,-2.827l2.828,-2.828c0.781,-0.781 2.047,-0.781 2.828,0c0.781,0.78 0.781,2.047 0,2.828l-2.828,2.827zm-2.947,15.607l0,0c1.749,2.086 2.806,4.77 2.806,7.705c0,6.625 -5.372,11.998 -11.999,11.998c-2.775,0 -12.801,0 -15.998,0c-8.835,0 -15.998,-7.162 -15.998,-15.998s7.163,-15.998 15.998,-15.998c1.572,0 3.09,0.232 4.523,0.654c2.195,-2.827 5.618,-4.654 9.475,-4.654c6.627,0 11.999,5.373 11.999,11.998c-0.001,1.515 -0.294,2.961 -0.806,4.295zm-37.19,3.705c0,6.627 5.371,11.998 11.998,11.998c3.616,0 12.979,0 15.998,0c4.418,0 7.999,-3.582 7.999,-7.998c0,-4.418 -3.581,-8 -7.999,-8c-1.6,0 -3.083,0.482 -4.333,1.291c-1.231,-5.316 -5.974,-9.289 -11.665,-9.289c-6.627,0 -11.998,5.371 -11.998,11.998zm25.996,-15.998c-2.212,0 -4.215,0.898 -5.662,2.349c2.34,1.436 4.285,3.453 5.629,5.854c0.664,-0.113 1.337,-0.205 2.033,-0.205c2.125,0 4.119,0.559 5.85,1.527l0,0c0.096,-0.494 0.15,-1.004 0.15,-1.527c0,-4.416 -3.582,-7.998 -8,-7.998zm0,-8c-1.104,0 -1.999,-0.895 -1.999,-1.999l0,-3.999c0,-1.105 0.896,-2 1.999,-2c1.105,0 2,0.895 2,2l0,3.999c0,1.105 -0.894,1.999 -2,1.999zm-14.14,4.686l-2.827,-2.827c-0.781,-0.781 -0.781,-2.048 0,-2.828c0.78,-0.781 2.047,-0.781 2.827,0l2.828,2.828c0.781,0.78 0.781,2.047 0,2.827c-0.78,0.781 -2.047,0.781 -2.828,0z"/>
  </g>
 </g>

</svg>