<svg width="150px" fill="#fff" height="150px"  viewBox="0 0 50 30" enable-background="new 0 0 100 100" xmlns="http://www.w3.org/2000/svg" xml:space="preserve" version="1.1">

 <g>
  <title>Layer 1</title>
  <path id="svg_1" d="m1.174,21.997c-0.262,-0.646 -0.473,-1.315 -0.648,-2l43.47,0c0,0.684 -0.07,1.348 -0.181,2l-42.641,0zm7.086,-19.998c2.294,-1.271 4.93,-1.999 7.738,-1.999c2.806,0 5.436,0.73 7.727,1.999l-15.465,0zm-8.121,11.999c0.085,-0.682 0.218,-1.347 0.387,-1.999l40.396,0c0.551,0.613 1.039,1.281 1.455,1.999l-42.238,0zm1.035,-3.999c0.281,-0.693 0.613,-1.359 0.984,-2l27.682,0c0.04,0.068 0.084,0.135 0.123,0.205c0.664,-0.114 1.338,-0.205 2.033,-0.205c2.451,0 4.729,0.738 6.627,2l-37.449,0zm2.347,-4c0.58,-0.723 1.225,-1.388 1.92,-2l21.122,0c0.69,0.61 1.326,1.28 1.903,2l-24.945,0zm40.293,11.998l-43.675,0c-0.082,-0.656 -0.139,-1.32 -0.139,-1.999l43.298,0c0.227,0.643 0.401,1.311 0.516,1.999zm-0.516,6c-0.247,0.699 -0.555,1.367 -0.921,2l-38.856,0c-0.505,-0.629 -0.957,-1.299 -1.363,-2l41.14,0zm-37.857,4l35.48,0c-0.68,0.758 -1.447,1.434 -2.299,1.999l-30.362,0c-1.016,-0.562 -1.954,-1.24 -2.819,-1.999z" clip-rule="evenodd" fill-rule="evenodd"/>
 </g>
</svg>