<svg width="150px" fill="#fff" height="150px"  viewBox="0 0 50 50" enable-background="new 0 0 100 100" xmlns="http://www.w3.org/2000/svg" xml:space="preserve"  version="1.1">

 <g>
  <title>Layer 1</title>
  <path id="svg_1" d="m35.996,31.298l0,-4.381c2.389,-1.383 4,-3.961 4,-6.92c0,-4.417 -3.582,-7.999 -8,-7.999c-1.6,0 -3.082,0.48 -4.333,1.291c-1.231,-5.317 -5.974,-9.29 -11.665,-9.29c-6.626,0 -11.998,5.372 -11.998,11.998c0,3.55 1.551,6.728 4,8.925l0,4.916c-4.777,-2.768 -8,-7.922 -8,-13.841c0,-8.835 7.163,-15.997 15.998,-15.997c6.004,0 11.229,3.311 13.965,8.203c0.664,-0.113 1.338,-0.205 2.033,-0.205c6.627,0 11.999,5.372 11.999,11.999c0,5.223 -3.341,9.653 -7.999,11.301zm-21.997,-11.3c1.104,0 1.999,0.896 1.999,2l0,15.998c0,1.105 -0.895,2 -1.999,2s-2,-0.895 -2,-2l0,-15.998c0,-1.104 0.896,-2 2,-2zm7.999,4c1.104,0 2,0.895 2,2l0,15.998c0,1.104 -0.896,2 -2,2s-2,-0.896 -2,-2l0,-15.998c0,-1.106 0.896,-2 2,-2zm7.999,-4c1.104,0 1.999,0.896 1.999,2l0,15.998c0,1.105 -0.895,2 -1.999,2s-2,-0.895 -2,-2l0,-15.998c0,-1.104 0.896,-2 2,-2z" clip-rule="evenodd" fill-rule="evenodd"/>
 </g>
</svg>