<svg width="150px" fill="#fff" height="150px"  viewBox="0 0 50 40" xmlns="http://www.w3.org/2000/svg" xml:space="preserve" version="1.1">

 <g>
  <title>Layer 1</title>
  <path id="svg_1" d="m33.995,31.819l0,-4.082c3.448,-0.891 6,-4.012 6,-7.738c0,-4.417 -3.582,-7.999 -7.999,-7.999c-1.601,0 -3.084,0.48 -4.334,1.291c-1.231,-5.317 -5.973,-9.291 -11.664,-9.291c-6.627,0 -11.999,5.373 -11.999,12c0,4.438 2.417,8.305 5.999,10.379l0,4.445c-5.86,-2.375 -9.998,-8.113 -9.998,-14.825c0,-8.835 7.162,-15.999 15.998,-15.999c6.004,0 11.229,3.312 13.965,8.204c0.664,-0.113 1.336,-0.205 2.033,-0.205c6.626,0 11.998,5.373 11.998,11.998c0,5.947 -4.326,10.867 -9.999,11.822zm-18.926,-5.82c0.553,-0.957 1.775,-1.283 2.732,-0.732l2.196,1.267l0,-2.535c0,-1.104 0.896,-2 2,-2s2,0.896 2,2l0,2.535l2.195,-1.268c0.957,-0.551 2.18,-0.225 2.731,0.732c0.553,0.957 0.225,2.18 -0.731,2.732l-2.196,1.268l2.196,1.268c0.956,0.553 1.284,1.775 0.731,2.732c-0.552,0.955 -1.774,1.283 -2.731,0.73l-2.195,-1.266l0,2.535c0,1.105 -0.896,2 -2,2s-2,-0.895 -2,-2l0,-2.535l-2.195,1.268c-0.957,0.553 -2.18,0.225 -2.732,-0.73c-0.552,-0.957 -0.225,-2.18 0.732,-2.732l2.195,-1.269l-2.195,-1.268c-0.957,-0.553 -1.284,-1.775 -0.733,-2.732zm6.928,6c1.104,0 2,-0.896 2,-2c0,-1.105 -0.896,-2 -2,-2s-2,0.895 -2,2c0,1.103 0.896,2 2,2z" clip-rule="evenodd" fill-rule="evenodd"/>
 </g>
</svg>